<svg width="32" height="32" viewBox="0 0 32 32" fill="none" xmlns="http://www.w3.org/2000/svg">
<path fill-rule="evenodd" clip-rule="evenodd" d="M15.9929 20.6666C18.5702 20.6666 20.6595 18.5773 20.6595 15.9999C20.6595 13.4226 18.5702 11.3333 15.9929 11.3333C13.4155 11.3333 11.3262 13.4226 11.3262 15.9999C11.3262 18.5773 13.4155 20.6666 15.9929 20.6666ZM15.9929 17.9925C14.8925 17.9925 14.0003 17.1003 14.0003 15.9999C14.0003 14.8995 14.8925 14.0074 15.9929 14.0074C17.0933 14.0074 17.9854 14.8995 17.9854 15.9999C17.9854 17.1003 17.0933 17.9925 15.9929 17.9925Z" fill="#E0A75E"/>
<path fill-rule="evenodd" clip-rule="evenodd" d="M16.0007 6.66675C9.58578 6.66675 5.223 10.1455 2.9198 12.6398C1.14392 14.563 1.14392 17.4371 2.9198 19.3603C5.223 21.8547 9.58578 25.3334 16.0007 25.3334C22.4157 25.3334 26.7785 21.8547 29.0817 19.3603C30.8575 17.4371 30.8575 14.563 29.0817 12.6398C26.7785 10.1455 22.4157 6.66675 16.0007 6.66675ZM4.87897 14.4489C6.91849 12.2401 10.6233 9.33341 16.0007 9.33341C21.3782 9.33341 25.083 12.2401 27.1225 14.4489C27.955 15.3505 27.955 16.6497 27.1225 17.5513C25.083 19.7601 21.3782 22.6667 16.0007 22.6667C10.6233 22.6667 6.91849 19.7601 4.87897 17.5513C4.04641 16.6497 4.04641 15.3505 4.87897 14.4489Z" fill="#E0A75E"/>
</svg>
