<svg width="24" height="24" viewBox="0 0 24 24" fill="none" xmlns="http://www.w3.org/2000/svg">
<path d="M23.1075 0.89344C22.8552 0.643 22.5388 0.466933 22.1931 0.3846C21.8473 0.30228 21.4855 0.316867 21.1475 0.426774L1.64081 6.93344C1.27904 7.04807 0.95936 7.26735 0.722133 7.56356C0.484907 7.85977 0.340787 8.21965 0.307973 8.59773C0.27516 8.97581 0.35512 9.35509 0.53776 9.68776C0.720413 10.0204 0.997533 10.2915 1.33415 10.4668L9.42748 14.4668L13.4275 22.5868C13.5883 22.9046 13.8343 23.1715 14.138 23.3575C14.4417 23.5435 14.7913 23.6414 15.1475 23.6402H15.2808C15.6623 23.612 16.0264 23.4699 16.326 23.232C16.6256 22.9943 16.8468 22.6719 16.9608 22.3068L23.5608 2.85344C23.6787 2.51735 23.6987 2.15469 23.6184 1.80769C23.5381 1.46071 23.3609 1.14365 23.1075 0.89344ZM2.46748 8.77344L19.4941 3.09344L10.0408 12.5468L2.46748 8.77344ZM15.2408 21.5335L11.4541 13.9602L20.9075 4.50677L15.2408 21.5335Z" fill="white"/>
</svg>
